<?xml version="1.0" encoding="iso-8859-1"?>
<!-- Generator: Adobe Illustrator 16.0.0, SVG Export Plug-In . SVG Version: 6.00 Build 0)  -->
<!DOCTYPE svg PUBLIC "-//W3C//DTD SVG 1.1//EN" "http://www.w3.org/Graphics/SVG/1.1/DTD/svg11.dtd">
<svg version="1.1" id="Capa_1" xmlns="http://www.w3.org/2000/svg" xmlns:xlink="http://www.w3.org/1999/xlink" x="0px" y="0px"
	 width="83.818px" height="83.818px" viewBox="0 0 83.818 83.818" style="enable-background:new 0 0 83.818 83.818;"
	 xml:space="preserve">
<g>
	<g>
		<path d="M39.306,40.085h0.974c0.238,0,0.443,0.168,0.49,0.401c0.208,1.03,0.604,1.99,1.18,2.854
			c0.132,0.199,0.105,0.463-0.063,0.631l-0.688,0.688c-0.152,0.152-0.152,0.402,0.001,0.555l1.132,1.133
			c0.147,0.146,0.405,0.146,0.554-0.002l0.688-0.687c0.098-0.097,0.226-0.146,0.354-0.146c0.097,0,0.192,0.026,0.277,0.084
			c0.862,0.573,1.823,0.972,2.854,1.18c0.232,0.047,0.4,0.252,0.4,0.49v0.975c0,0.216,0.176,0.391,0.393,0.391h1.601
			c0.216,0,0.392-0.175,0.392-0.391V47.27c0-0.238,0.168-0.443,0.401-0.49c1.021-0.205,1.981-0.604,2.854-1.184
			c0.197-0.134,0.463-0.105,0.631,0.062l0.687,0.688c0.147,0.146,0.403,0.147,0.556,0l1.131-1.133
			c0.073-0.074,0.114-0.172,0.114-0.275c0-0.104-0.041-0.203-0.114-0.277l-0.688-0.688c-0.168-0.168-0.194-0.432-0.062-0.629
			c0.58-0.875,0.979-1.834,1.185-2.855c0.047-0.233,0.252-0.401,0.489-0.401h0.97c0.104,0,0.204-0.041,0.278-0.115
			c0.072-0.073,0.112-0.171,0.112-0.274v-1.603c0-0.104-0.04-0.203-0.114-0.277c-0.072-0.073-0.172-0.114-0.274-0.114h-0.976
			c-0.238,0-0.443-0.168-0.49-0.401c-0.209-1.029-0.604-1.989-1.18-2.854c-0.133-0.198-0.106-0.462,0.062-0.631l0.688-0.688
			c0.152-0.152,0.151-0.401-0.002-0.555l-1.13-1.131c-0.147-0.148-0.405-0.148-0.555,0l-0.687,0.688
			c-0.168,0.169-0.433,0.195-0.631,0.063c-0.861-0.574-1.822-0.972-2.855-1.181c-0.232-0.048-0.4-0.252-0.4-0.49V29.55
			c0-0.216-0.176-0.392-0.392-0.392h-1.603c-0.216,0-0.392,0.176-0.392,0.392v0.97c0,0.238-0.168,0.443-0.401,0.49
			c-1.021,0.205-1.982,0.604-2.854,1.185c-0.2,0.133-0.463,0.106-0.631-0.063l-0.688-0.688c-0.148-0.15-0.406-0.149-0.553-0.001
			l-1.134,1.132c-0.152,0.153-0.152,0.402,0,0.555l0.688,0.688c0.168,0.168,0.194,0.433,0.063,0.631
			c-0.581,0.874-0.979,1.834-1.184,2.853c-0.047,0.234-0.252,0.402-0.49,0.402h-0.97c-0.104,0-0.203,0.041-0.277,0.115
			c-0.073,0.073-0.114,0.172-0.114,0.276v1.602C38.914,39.91,39.09,40.085,39.306,40.085z M48.649,32.151
			c3.719,0,6.742,3.024,6.742,6.742c0,3.717-3.023,6.742-6.742,6.742c-3.717,0-6.741-3.024-6.741-6.742
			C41.909,35.176,44.935,32.151,48.649,32.151z"/>
		<path d="M22.252,38.864v0.817c1.373,0.354,2.673,0.891,3.881,1.604l0.575-0.575c0.468-0.469,1.091-0.727,1.752-0.727
			c0.001,0,0.002,0,0.003,0c0.661,0.001,1.282,0.259,1.749,0.728l1.875,1.874c0.966,0.966,0.966,2.538,0,3.504l-0.575,0.575
			c0.714,1.212,1.251,2.512,1.604,3.881h0.817c0.001,0,0.002,0,0.003,0c0.659,0,1.28,0.258,1.748,0.725
			c0.469,0.469,0.727,1.092,0.727,1.754v0.926h25.281V26.345H19.201v10.041h0.573C21.141,36.386,22.252,37.498,22.252,38.864z
			 M37.914,38.093c0-0.768,0.623-1.392,1.39-1.392h0.571c0.215-0.866,0.558-1.691,1.021-2.462l-0.404-0.404
			c-0.541-0.541-0.542-1.424-0.001-1.968l1.134-1.132c0.522-0.527,1.44-0.527,1.969,0l0.403,0.404
			c0.77-0.464,1.594-0.806,2.462-1.022v-0.569c0-0.768,0.624-1.392,1.392-1.392h1.602c0.768,0,1.392,0.624,1.392,1.392v0.574
			c0.875,0.218,1.699,0.559,2.462,1.018l0.404-0.404c0.527-0.527,1.441-0.527,1.969,0l1.131,1.131c0.543,0.545,0.543,1.428,0,1.97
			l-0.404,0.403c0.461,0.765,0.802,1.59,1.019,2.462h0.574c0.372,0,0.723,0.146,0.985,0.409c0.263,0.263,0.406,0.612,0.405,0.983
			v1.601c0.001,0.37-0.144,0.719-0.405,0.981c-0.264,0.264-0.612,0.409-0.985,0.409h-0.569c-0.216,0.868-0.559,1.693-1.021,2.464
			l0.404,0.402c0.264,0.264,0.407,0.613,0.407,0.984c-0.001,0.371-0.146,0.722-0.407,0.983l-1.132,1.132
			c-0.53,0.525-1.442,0.524-1.969,0.002l-0.403-0.406c-0.771,0.464-1.596,0.807-2.463,1.021v0.57c0,0.767-0.624,1.391-1.392,1.391
			h-1.603c-0.768,0-1.392-0.624-1.392-1.391v-0.575c-0.873-0.217-1.698-0.558-2.462-1.017l-0.404,0.404
			c-0.527,0.524-1.441,0.524-1.968,0l-1.133-1.133c-0.542-0.543-0.542-1.426-0.001-1.969l0.405-0.404
			c-0.459-0.764-0.8-1.589-1.017-2.462h-0.574c-0.768,0-1.392-0.624-1.392-1.391L37.914,38.093L37.914,38.093z"/>
		<path d="M48.649,44.635c3.166,0,5.742-2.574,5.742-5.741c0-3.166-2.576-5.742-5.742-5.742s-5.74,2.576-5.74,5.742
			C42.909,42.061,45.483,44.635,48.649,44.635z"/>
		<path d="M19.201,45.045v8.903h8.568C27.568,49.234,23.868,45.42,19.201,45.045z"/>
		<path d="M16.279,40.562v3.943v12.47h11.844h3.995h32.495V19.317H16.279V40.562z M61.573,20.864h1.166c0.554,0,1,0.447,1,1
			c0,0.553-0.446,1-1,1h-1.166c-0.553,0-1-0.447-1-1C60.573,21.311,61.022,20.864,61.573,20.864z M56.573,20.864h1.166
			c0.554,0,1,0.447,1,1c0,0.553-0.446,1-1,1h-1.166c-0.553,0-1-0.447-1-1C55.573,21.311,56.022,20.864,56.573,20.864z
			 M51.573,20.864h1.166c0.554,0,1,0.447,1,1c0,0.553-0.446,1-1,1h-1.166c-0.553,0-1-0.447-1-1
			C50.573,21.311,51.022,20.864,51.573,20.864z M17.201,44.02v-6.633V25.345c0-0.553,0.447-1,1-1h44.49c0.554,0,1,0.447,1,1v29.604
			c0,0.553-0.446,1-1,1H35.41h-6.65H18.201c-0.553,0-1-0.447-1-1V44.02z"/>
		<path d="M41.909,0C18.764,0,0.001,18.764,0.001,41.91c0,23.145,18.764,41.908,41.908,41.908c23.146,0,41.909-18.764,41.909-41.908
			C83.817,18.764,65.056,0,41.909,0z M66.612,57.975c0,0.554-0.446,1-1,1H32.118h-3.995H15.279c-0.553,0-1-0.446-1-1V44.506v-3.943
			V18.317c0-0.553,0.447-1,1-1h50.333c0.554,0,1,0.447,1,1V57.975z"/>
		<path d="M29.77,53.948h4.641v-0.927c0-0.172-0.088-0.285-0.141-0.338c-0.052-0.053-0.164-0.14-0.335-0.14h-0.001h-1.615
			c-0.477,0-0.887-0.336-0.98-0.803c-0.338-1.681-0.986-3.252-1.929-4.669c-0.264-0.396-0.211-0.924,0.126-1.262l1.138-1.137
			c0.122-0.123,0.14-0.265,0.14-0.339c0-0.073-0.018-0.216-0.14-0.338l-1.876-1.875c-0.122-0.122-0.263-0.141-0.336-0.141
			c0,0,0,0-0.001,0c-0.073,0-0.216,0.019-0.338,0.141l-1.138,1.14c-0.338,0.338-0.867,0.389-1.262,0.125
			c-1.41-0.939-2.98-1.59-4.669-1.931c-0.467-0.095-0.802-0.505-0.802-0.98v-1.613c0-0.264-0.214-0.479-0.478-0.479h-0.573v4.659
			C24.971,43.428,29.566,48.133,29.77,53.948z"/>
	</g>
</g>
<g>
</g>
<g>
</g>
<g>
</g>
<g>
</g>
<g>
</g>
<g>
</g>
<g>
</g>
<g>
</g>
<g>
</g>
<g>
</g>
<g>
</g>
<g>
</g>
<g>
</g>
<g>
</g>
<g>
</g>
</svg>
